<?xml version="1.0" encoding="UTF-8"?>
<svg version="1.1" xmlns="http://www.w3.org/2000/svg" width="2380" height="2380">
<path d="M0 0 C785.4 0 1570.8 0 2380 0 C2380 785.4 2380 1570.8 2380 2380 C1594.6 2380 809.2 2380 0 2380 C0 1594.6 0 809.2 0 0 Z " fill="#000000" transform="translate(0,0)"/>
<path d="M0 0 C0.89019836 -0.00385712 1.78039673 -0.00771423 2.6975708 -0.01168823 C56.32072572 -0.12615921 108.3160568 17.04271494 147.5 54.3125 C148.33917969 55.10285645 148.33917969 55.10285645 149.1953125 55.90917969 C174.31722808 79.70818589 191.17710884 109.7820573 202.5 142.3125 C206.09760754 142.3125 208.44891147 138.76834259 210.9375 136.375 C216.04576356 131.54453708 221.24462029 126.94509954 226.734375 122.546875 C229.25183412 120.5129956 231.72079923 118.43620255 234.18017578 116.33325195 C240.83311169 110.64452407 247.64198117 105.1902075 254.55761719 99.82519531 C256.64175747 98.20210165 258.71580916 96.56666104 260.7890625 94.9296875 C270.79980565 87.04656823 280.98064022 79.50265111 291.5 72.3125 C292.38397461 71.70680176 293.26794922 71.10110352 294.17871094 70.47705078 C325.45309556 49.12823038 358.0027443 29.77220553 393.5 16.3125 C394.28310547 16.01553223 395.06621094 15.71856445 395.87304688 15.41259766 C408.08549971 10.87692467 420.68669776 7.76835685 433.40185547 4.99414062 C435.34469933 4.56668436 437.2844979 4.12486286 439.21923828 3.66210938 C454.06528307 0.14527981 468.75485989 -0.05437571 483.9375 -0.0625 C484.92487152 -0.06449402 485.91224304 -0.06648804 486.92953491 -0.06854248 C535.16320183 -0.05752165 585.4707069 12.97277198 622.5 45.3125 C623.602342 46.22486536 624.70667166 47.13483213 625.8125 48.04296875 C655.82100775 72.88252739 677.59553047 107.99904008 688.5 145.3125 C688.7381543 146.11349121 688.97630859 146.91448242 689.22167969 147.73974609 C699.20531796 181.63223673 700.80786679 214.98626932 700.77269709 250.07647061 C700.77018506 254.83036776 700.77933405 259.58424525 700.78707886 264.33813477 C700.79903761 272.54936457 700.80422718 280.76057509 700.80496025 288.9718132 C700.80629533 300.86409671 700.82148787 312.75633397 700.84045542 324.64860101 C700.87119053 343.97747957 700.89540677 363.30635931 700.91333008 382.63525391 C700.91440276 383.78845346 700.91547544 384.94165301 700.91658062 386.12979801 C700.9284073 399.00279072 700.93861518 411.8757839 700.94702148 424.7487793 C700.95009598 429.4231771 700.95318468 434.09757488 700.95629883 438.77197266 C700.95706417 439.92556418 700.95782951 441.07915569 700.95861804 442.26770453 C700.97172286 461.53870884 700.99638796 480.80967932 701.03004223 500.08065856 C701.05025627 511.93690316 701.06063217 523.79307528 701.05805302 535.64933725 C701.05701388 543.77370455 701.06671994 551.89801461 701.08469205 560.02236192 C701.09468056 564.69924488 701.09992619 569.3760011 701.09192467 574.05289078 C699.43983562 609.86824423 699.43983562 609.86824423 712.8125 641.6875 C718.05955153 646.43529849 724.61626951 648.36747439 731.20703125 650.55175781 C764.34798789 661.54699002 764.34798789 661.54699002 772.84375 676.7109375 C777.62999904 687.00137293 778.25347294 698.45273022 774.4375 709.1875 C770.37877204 718.53280639 764.81103383 724.21751355 755.5 728.3125 C748.90637571 730.87907362 742.71935956 732.43430426 735.61116791 732.44672108 C734.42487525 732.45117892 733.2385826 732.45563676 732.01634169 732.46022969 C730.71685103 732.46004533 729.41736037 732.45986097 728.07849121 732.45967102 C726.68100778 732.46297183 725.2835253 732.46669785 723.88604403 732.4708125 C720.0459022 732.48081608 716.205776 732.48454665 712.365623 732.48720181 C708.22363085 732.49110977 704.08165102 732.5006878 699.93966675 732.50941467 C689.93641253 732.52916576 679.93315732 732.53924383 669.92988849 732.54814246 C665.21656907 732.55252781 660.50325078 732.557894 655.78993225 732.56313133 C640.11709578 732.58014268 624.44426 732.59463601 608.77141571 732.60188007 C604.70535786 732.6037899 600.63930002 732.60571024 596.57324219 732.60766602 C595.56267071 732.60814976 594.55209923 732.6086335 593.51090437 732.6091319 C577.14672457 732.61742909 560.78261795 732.6427612 544.41847008 732.67524669 C527.60931309 732.70834292 510.80019325 732.72633117 493.99100351 732.72952431 C484.55671558 732.73168709 475.12253433 732.7404017 465.6882782 732.76598549 C457.65222426 732.78772757 449.61630292 732.7957257 441.5802229 732.78601871 C437.48338487 732.78148408 433.38682025 732.78331112 429.29001999 732.80278015 C425.53179179 732.82048516 421.77403497 732.81935541 418.01580125 732.80388286 C416.02838123 732.80040638 414.04095583 732.81647815 412.05360556 732.83348733 C398.52548868 732.73732457 386.86093721 729.21204484 376.75 720.125 C372.89507954 716.12045934 371.19633619 711.52918978 369.5 706.3125 C369.17 705.3225 368.84 704.3325 368.5 703.3125 C367.39009266 690.7590652 367.42675361 678.40901313 375.5 668.125 C384.49194058 658.92742253 394.81277903 654.71060276 406.78295898 650.63305664 C416.86012238 647.12742327 424.95484774 642.69798425 430.5 633.3125 C436.07497173 621.54311524 436.94716203 608.25783604 436.8742218 595.43856812 C436.87697066 594.00515532 436.88102975 592.57174455 436.88626546 591.13833869 C436.89674122 587.24494293 436.88879639 583.35178048 436.87751496 579.45839524 C436.86860323 575.2414394 436.87713663 571.02451183 436.88337708 566.80755615 C436.89282828 558.5628012 436.88629672 550.31813426 436.87411413 542.07338588 C436.86043127 532.45124663 436.86213766 522.82912788 436.86424746 513.20698138 C436.86743226 496.02224698 436.85580104 478.83755411 436.83618164 461.65283203 C436.81719759 445.02000665 436.81009011 428.38722997 436.81567383 411.75439453 C436.82174923 393.60351257 436.82152105 375.45265197 436.810188 357.30177176 C436.80898084 355.36124206 436.80777485 353.42071235 436.80657005 351.48018265 C436.80596651 350.52565204 436.80536298 349.57112144 436.80474115 348.58766567 C436.80088124 341.89928577 436.80124818 335.21091389 436.8031559 328.52253342 C436.80529128 320.35375207 436.79995361 312.1850131 436.78554235 304.01624362 C436.77836129 299.85767187 436.77416656 295.69916141 436.77878571 291.54058456 C436.79523185 274.69917104 436.57608263 258.05385997 434.5 241.3125 C434.36540532 240.09002249 434.23081064 238.86754498 434.09213734 237.60802269 C431.51317333 215.12258387 420.36493003 191.60982487 402.8125 177.07421875 C378.72522598 158.7239475 348.6383315 155.23717633 319.17578125 158.70361328 C312.48129007 159.76315015 305.99439576 161.39004175 299.5 163.3125 C298.66533203 163.55355469 297.83066406 163.79460937 296.97070312 164.04296875 C267.91080753 172.67190868 241.90878072 189.13285551 219.25 209 C216.5 211.3125 216.5 211.3125 214.5 211.3125 C214.74355572 212.09635688 214.74355572 212.09635688 214.99203175 212.89604926 C215.63747525 215.96648216 215.62620942 218.83627149 215.62749195 221.97571182 C215.62913578 222.64750638 215.63077962 223.31930094 215.63247326 224.01145291 C215.63680062 226.27281312 215.63400925 228.53410926 215.63130188 230.79547119 C215.63300371 232.42919139 215.63515325 234.06291116 215.63771313 235.69663024 C215.64231451 239.25422631 215.64373015 242.81180497 215.64274788 246.36940384 C215.64115663 252.15798884 215.64635416 257.94655655 215.65237427 263.73513794 C215.66049252 272.14154302 215.66543304 280.54794506 215.66866493 288.95435333 C215.67416166 302.24983497 215.69106049 315.54529094 215.71000671 328.84075928 C215.71636384 333.3900642 215.72267227 337.93936918 215.72898388 342.48867416 C215.73056764 343.62570831 215.7321514 344.76274246 215.73378316 345.93423219 C215.75172612 358.88258524 215.76794807 371.83094011 215.78295898 384.77929688 C215.78433486 385.96310258 215.78571073 387.14690829 215.78712829 388.36658689 C215.80903448 407.52877326 215.81980842 426.69095302 215.82732973 445.85314968 C215.8354104 465.53367912 215.85873367 485.21415208 215.8952834 504.89464927 C215.91727331 517.02821062 215.92698377 529.1616557 215.92078307 541.29523596 C215.91760017 549.6202364 215.92899331 557.94513785 215.95167748 566.27010766 C215.9643025 571.06801969 215.97056717 575.86571108 215.95926094 580.66363144 C215.94902071 585.06600721 215.95748838 589.46795656 215.9801239 593.87028238 C215.98507867 595.45320303 215.98346689 597.03616266 215.97419123 598.61906388 C215.89568709 613.17365921 217.23687429 629.76618684 227.90551758 640.76098633 C232.60320452 645.12799579 237.64855112 647.40707144 243.5625 649.75 C245.43221097 650.52309434 247.30070061 651.29914895 249.16796875 652.078125 C250.07595215 652.45517578 250.98393555 652.83222656 251.91943359 653.22070312 C265.40015138 658.92418183 276.6364775 664.92554971 282.64453125 678.9921875 C285.45245245 689.8905118 284.99073968 704.41140877 279.5 714.3125 C274.46374625 721.58480939 268.75446293 726.20535131 260.5 729.3125 C259.91981934 729.5580024 259.33963868 729.8035048 258.74187678 730.05644667 C251.80711001 732.73682487 245.23451058 732.73256836 237.86994934 732.69345093 C236.49859724 732.69691225 235.12724793 732.70167999 233.75590438 732.70763266 C230.00646652 732.72010804 226.25725896 732.7139881 222.50782049 732.70467401 C218.45653276 732.69786926 214.40528385 732.70837202 210.35400391 732.71661377 C202.42360482 732.72993992 194.49329101 732.72707783 186.5628886 732.71837585 C180.11346391 732.71159292 173.66406308 732.71068523 167.21463585 732.7139473 C165.8362352 732.71463684 165.8362352 732.71463684 164.42998808 732.71534032 C162.56296112 732.71629954 160.69593416 732.71727218 158.82890721 732.7182581 C141.32788237 732.72680934 123.82690469 732.71698328 106.32588758 732.700857 C91.328807 732.68746525 76.33179611 732.689773 61.3347168 732.70361328 C43.90285953 732.7196931 26.47104363 732.72597363 9.03917998 732.71677649 C7.17760099 732.71582089 5.31602199 732.71487778 3.45444298 732.7139473 C2.08070719 732.71325306 2.08070719 732.71325306 0.67921916 732.71254479 C-5.75540546 732.70996127 -12.19000372 732.71431235 -18.62462425 732.72138596 C-26.47682952 732.72982837 -34.3289449 732.72746392 -42.18113997 732.71154372 C-46.18288873 732.70369601 -50.184488 732.70050898 -54.18623543 732.71049118 C-57.85856874 732.71951254 -61.53061578 732.71438463 -65.20292357 732.69855852 C-67.14167396 732.69368558 -69.08044465 732.70334053 -71.01917332 732.71373022 C-84.57958884 732.624001 -97.09258066 730.69936554 -107.52734375 721.53125 C-112.3911513 716.51319908 -114.58131357 710.95569388 -116.5 704.3125 C-116.78617188 703.40757812 -116.78617188 703.40757812 -117.078125 702.484375 C-119.13992134 691.869942 -118.32771076 680.54424742 -112.5 671.3125 C-103.96540779 660.45945557 -92.78495783 655.78552484 -80.16308594 651.20288086 C-68.04589547 646.7928601 -59.45998973 642.338917 -53.58984375 630.47265625 C-49.07484768 619.74103243 -49.20576231 607.6534179 -49.23930359 596.21678162 C-49.23627606 594.73488567 -49.23238359 593.25299129 -49.22771102 591.77109963 C-49.21749921 587.73448948 -49.21959531 583.69796882 -49.22389162 579.66135156 C-49.22637142 575.29373065 -49.21732904 570.92613059 -49.20985413 566.55851746 C-49.19713849 558.0143911 -49.19530962 549.47029622 -49.19765439 540.926162 C-49.1994417 533.97488573 -49.19767906 527.02361896 -49.19342995 520.07234383 C-49.19283476 519.08074961 -49.19223957 518.08915539 -49.19162634 517.06751286 C-49.19041451 515.05264743 -49.18920037 513.03778199 -49.18798397 511.02291656 C-49.1771199 492.14777617 -49.17926519 473.27265366 -49.18536881 454.39751226 C-49.19053346 437.16560138 -49.17929243 419.93374711 -49.16027059 402.70184743 C-49.14085231 384.97369941 -49.1326434 367.24557811 -49.13639385 349.5174194 C-49.13830029 339.57835563 -49.13587312 329.63934 -49.12167931 319.70028496 C-49.10971334 311.23607483 -49.10841847 302.77194244 -49.12046947 294.30773114 C-49.1263226 289.99737041 -49.12755775 285.68715148 -49.11546707 281.37680054 C-49.05505277 258.21649849 -49.90753665 236.40709358 -57.5 214.3125 C-58.03560547 212.73082031 -58.03560547 212.73082031 -58.58203125 211.1171875 C-66.09333433 191.21090724 -80.51611266 176.28313182 -99.4296875 166.8515625 C-123.39294329 156.13628552 -153.24012328 154.93099075 -178.5 161.3125 C-179.16547852 161.47347168 -179.83095703 161.63444336 -180.51660156 161.80029297 C-211.46461583 169.46003687 -239.06809396 186.27960295 -263.5 206.3125 C-264.53673965 207.04838266 -265.5734793 207.78426532 -266.6416353 208.54244745 C-269.73514973 211.04347005 -269.73514973 211.04347005 -270.24979365 214.47002947 C-270.24968362 215.66989879 -270.24957359 216.8697681 -270.24946022 218.10599709 C-270.25758167 218.77973507 -270.26570312 219.45347306 -270.27407068 220.14762735 C-270.29399959 222.41042772 -270.2710956 224.67075673 -270.2484436 226.9335022 C-270.25392386 228.57008218 -270.26202724 230.20665513 -270.27253091 231.84321058 C-270.29374054 236.34473559 -270.2774244 240.84546842 -270.25502992 245.34695911 C-270.23736942 250.20075776 -270.25422681 255.0544514 -270.26675415 259.9082489 C-270.28575416 269.42245985 -270.2725063 278.9363679 -270.24822827 288.45055641 C-270.22098853 299.53914738 -270.22426448 310.62766613 -270.22849493 321.71628205 C-270.23487929 341.51664598 -270.21152143 361.31686621 -270.17236328 381.1171875 C-270.13442523 400.30570868 -270.12016878 419.49406118 -270.13134766 438.68261719 C-270.14348791 459.58311197 -270.14305849 480.4835325 -270.12037599 501.38402116 C-270.11796152 503.61731553 -270.11554955 505.8506099 -270.11314011 508.08390427 C-270.11193303 509.18263579 -270.11072595 510.28136732 -270.1094823 511.41339374 C-270.10174701 519.13003175 -270.10250257 526.84664201 -270.1063118 534.56328201 C-270.11057496 543.98734634 -270.09996484 553.41126349 -270.07108469 562.83528651 C-270.05668205 567.63762213 -270.04836847 572.43974442 -270.05757141 577.24209785 C-271.56168865 612.03949683 -271.56168865 612.03949683 -256.875 642.0625 C-249.97919021 647.11121788 -241.89003832 650.19805639 -233.9699707 653.22924805 C-218.64014097 659.11753634 -218.64014097 659.11753634 -212.5 665.3125 C-211.860625 665.91578125 -211.22125 666.5190625 -210.5625 667.140625 C-203.79108489 674.08132549 -201.30229738 681.76965369 -201.125 691.375 C-201.50931072 702.74315899 -203.45162108 713.79467364 -211.9375 722.0625 C-219.71738111 728.33995665 -230.30001158 732.43428579 -240.2741642 732.44113445 C-241.4603159 732.4443589 -242.6464676 732.44758335 -243.86856329 732.4509055 C-245.17301315 732.4493569 -246.47746301 732.4478083 -247.82144165 732.44621277 C-249.22019969 732.44808065 -250.61895721 732.45038126 -252.0177139 732.45307809 C-255.86591142 732.45920561 -259.71408724 732.45906137 -263.56228852 732.45788372 C-267.71105425 732.45767994 -271.85981297 732.46319632 -276.00857544 732.46794128 C-284.13948873 732.47625425 -292.27039477 732.47899644 -300.40131195 732.47955366 C-307.01154437 732.48002864 -313.62177441 732.48208246 -320.23200607 732.48525429 C-338.97247772 732.4940636 -357.71294364 732.49867338 -376.45341738 732.49792381 C-377.46410702 732.49788386 -378.47479667 732.4978439 -379.51611328 732.49780273 C-380.52803719 732.49776185 -381.53996111 732.49772097 -382.58254938 732.49767885 C-398.9746604 732.49727259 -415.36674842 732.50683655 -431.75885279 732.5209411 C-448.58943405 732.53530862 -465.42000409 732.54221104 -482.25059164 732.54134732 C-491.6998532 732.54101542 -501.14909067 732.54375933 -510.59834671 732.55452538 C-518.64583117 732.56363544 -526.69328064 732.56580156 -534.74076803 732.55901595 C-538.84524926 732.55575295 -542.94966336 732.55568606 -547.05413818 732.5643692 C-550.81583588 732.57224513 -554.57741335 732.57079163 -558.33910815 732.56208507 C-560.33573446 732.55982957 -562.33236453 732.56737028 -564.32897627 732.57532471 C-578.41682085 732.52141623 -590.80720883 730.04598167 -601.5 720.3125 C-608.11894744 713.16059835 -610.06246472 704.39072469 -609.9375 694.875 C-609.92775146 694.04170166 -609.91800293 693.20840332 -609.90795898 692.34985352 C-609.60115804 681.70750072 -606.29705231 675.25846888 -598.91796875 667.56640625 C-589.64114144 658.91902441 -578.50643194 654.82157362 -566.5 651.4375 C-556.67363513 648.62334686 -547.33338742 645.21362449 -541.5 636.28125 C-538.49835214 630.37175579 -536.81186525 625.0267665 -535.83673 618.49338818 C-535.71034213 617.66270823 -535.58395426 616.83202828 -535.45373645 615.97617621 C-534.2434261 607.44404724 -534.07735812 599.02098449 -534.11231995 590.41828918 C-534.10813341 588.70562334 -534.10264875 586.99296028 -534.09600013 585.28030223 C-534.08170058 580.63381138 -534.08574096 575.98750023 -534.09316695 571.3410002 C-534.09793497 566.30688152 -534.08535719 561.27279973 -534.07514954 556.23869324 C-534.05802907 546.40130509 -534.05710713 536.56398101 -534.06236244 526.72658185 C-534.06641664 518.7275473 -534.06494581 510.72853157 -534.05961418 502.72949791 C-534.05886576 501.58769223 -534.05811734 500.44588655 -534.05734624 499.2694807 C-534.05581465 496.94940354 -534.0542763 494.62932639 -534.05273127 492.30924924 C-534.03903163 470.59668348 -534.04442691 448.88415384 -534.05591648 427.17158892 C-534.06585462 407.33133382 -534.05289361 387.49117189 -534.02898229 367.65093116 C-534.00457239 347.24221874 -533.99498755 326.8335497 -534.00163502 306.42482299 C-534.00512194 294.98137206 -534.00292952 283.53799283 -533.98538399 272.09455299 C-533.97063873 262.35748637 -533.97005741 252.62054201 -533.9874549 242.88347773 C-533.99594648 237.92140902 -533.99815936 232.9595585 -533.98280334 227.99750137 C-533.96889223 223.44585639 -533.97380122 218.89461523 -533.99304258 214.34299322 C-533.99678316 212.70600716 -533.99393738 211.06898823 -533.98343093 209.43203161 C-533.91089041 197.25362431 -534.09509428 181.56885704 -542.546875 171.921875 C-551.86300981 164.24537992 -562.8928408 162.63300564 -574.49194336 161.42675781 C-587.22043535 160.03413888 -599.21913087 157.24744517 -608.171875 147.27734375 C-610.66981616 143.58186021 -612.12789728 139.53208472 -613.5 135.3125 C-613.83 134.3225 -614.16 133.3325 -614.5 132.3125 C-615.49797873 120.80723091 -614.11980986 111.1731251 -607.0625 101.625 C-598.75716237 93.09352694 -588.07430317 88.51573606 -577.21484375 84.17578125 C-576.03376038 83.69947769 -574.852677 83.22317413 -573.63580322 82.73243713 C-561.93611674 78.038974 -550.16008176 73.54922021 -538.3621521 69.109375 C-532.69512999 66.97668292 -527.03169289 64.83451737 -521.36795616 62.69311905 C-519.4477112 61.96722715 -517.52731016 61.24174937 -515.60688782 60.5163269 C-504.59250794 56.35447717 -493.59458956 52.15033755 -482.60211182 47.93103027 C-476.89549077 45.74102049 -471.18722849 43.5552923 -465.47918701 41.36898804 C-464.58451721 41.0263089 -463.68984741 40.68362976 -462.76806641 40.33056641 C-461.88926819 39.9939801 -461.01046997 39.6573938 -460.1050415 39.31060791 C-457.56766009 38.33842361 -455.03063576 37.36531219 -452.49365234 36.39208984 C-334.58818226 -8.81002545 -334.58818226 -8.81002545 -299.26171875 6.890625 C-287.09235024 13.15604245 -278.88996421 23.4025835 -273.578125 35.796875 C-270.1013139 47.13430249 -270.23244758 58.47752578 -270.3046875 70.203125 C-270.30842566 72.00201255 -270.31126883 73.80090215 -270.31326294 75.59979248 C-270.32083626 80.29491977 -270.34042932 84.98991991 -270.3626709 89.68499756 C-270.3832664 94.4918038 -270.39229373 99.29863094 -270.40234375 104.10546875 C-270.42368222 113.50786783 -270.45774041 122.91017327 -270.5 132.3125 C-269.95802979 131.83773224 -269.41605957 131.36296448 -268.85766602 130.87380981 C-268.14280029 130.24787933 -267.42793457 129.62194885 -266.69140625 128.97705078 C-265.98443604 128.35790802 -265.27746582 127.73876526 -264.54907227 127.1008606 C-226.54914531 93.93581652 -185.67077746 63.73451222 -141.5 39.3125 C-140.65743652 38.84457031 -139.81487305 38.37664062 -138.94677734 37.89453125 C-95.51660797 13.94462514 -49.65857765 0.13412432 0 0 Z " fill="#F6F6F1" transform="translate(733.5,995.6875)"/>
<path d="M0 0 C0.68996315 -0.00097813 1.3799263 -0.00195625 2.09079742 -0.00296402 C46.92414031 -0.0637721 46.92414031 -0.0637721 66.08984375 4.59375 C71.29523421 5.80854357 76.56642219 6.59449863 81.84375 7.43359375 C93.65513318 9.6425671 105.12267732 13.81791882 116.5 17.625 C117.21850128 17.86388947 117.93700256 18.10277893 118.67727661 18.34890747 C127.50398757 21.28617384 136.22723194 24.37757307 144.875 27.8125 C164.90330566 35.66612216 184.04799463 38.73892319 204.5 30.078125 C212.75552222 25.9924839 219.82444302 20.44862967 227.11669922 14.875 C241.35577981 4.02928168 254.23381733 -1.9934002 272.4375 0.375 C280.74446631 2.90949204 285.93527964 8.13590358 290.4375 15.375 C291.11039063 16.44814453 291.11039063 16.44814453 291.796875 17.54296875 C294.61706346 22.60015855 296.2898165 27.91946453 297.81640625 33.48046875 C298.03282272 34.26563873 298.2492392 35.05080872 298.47221375 35.85977173 C300.68528637 44.048358 302.47499744 52.31484296 304.20205688 60.61730957 C305.16410606 65.23964643 306.14640383 69.85770611 307.125 74.4765625 C307.32172806 75.40770874 307.51845612 76.33885498 307.72114563 77.29821777 C309.50964804 85.7528044 311.36587389 94.19128098 313.25 102.625 C313.56513708 104.03856688 313.88024077 105.45214121 314.1953125 106.86572266 C315.50987977 112.75938231 316.82810466 118.6522233 318.14697266 124.54492188 C319.74782261 131.69778712 321.34610286 138.85121949 322.94174194 146.00524902 C323.47358287 148.38707709 324.00645274 150.76867567 324.54043579 153.15002441 C327.38930099 165.85507052 330.20303104 178.54526812 332.4375 191.375 C332.71605835 192.90181396 332.71605835 192.90181396 333.00024414 194.45947266 C335.23934666 209.38932319 335.04358435 227.11230875 326.9921875 240.28515625 C319.56522552 250.26863529 307.62467726 256.44052742 295.4375 258.375 C282.77724709 259.69717234 273.08259996 255.36792805 263.1484375 247.7109375 C252.71150704 238.71773229 245.12222605 227.69130511 237.4375 216.375 C226.11076052 199.73476631 214.26418841 183.70774393 200.66015625 168.8203125 C199.23200584 167.24909606 197.82141432 165.66163764 196.43359375 164.0546875 C185.44887771 151.42330624 172.85913784 140.33891182 159.4375 130.375 C158.86821777 129.94880371 158.29893555 129.52260742 157.71240234 129.08349609 C139.96625364 115.86018879 120.70066309 105.6215356 100.28564453 97.14355469 C98.63134301 96.45561001 96.98500879 95.74857882 95.33984375 95.0390625 C87.13332969 91.78135654 78.6870133 89.99344794 70.0625 88.1875 C68.86858643 87.93734131 67.67467285 87.68718262 66.44458008 87.42944336 C51.62825037 84.45047213 37.35961073 83.03832206 22.28198242 83.11425781 C19.74178462 83.12503485 17.20228676 83.11425972 14.66210938 83.1015625 C-12.11912181 83.07650305 -37.355182 90.20234988 -57.5625 108.375 C-71.68768792 122.47620628 -76.69953954 140.89756133 -77 160.3125 C-76.8867435 179.40535417 -71.08365536 196.50767048 -57.5625 210.375 C-48.83128162 218.27299727 -39.23777154 223.54992267 -28.5625 228.375 C-27.49201416 228.87362549 -27.49201416 228.87362549 -26.39990234 229.38232422 C1.37085863 242.25410582 32.54080675 248.18999937 62.51049805 253.52954102 C78.7383843 256.45250199 94.76182536 260.37644915 110.734375 264.453125 C113.32539108 265.09814588 115.91077605 265.71501901 118.515625 266.296875 C128.28415392 268.48355407 137.76484242 271.19679748 147.26904297 274.33496094 C149.61992963 275.10663432 151.97263916 275.87015353 154.32861328 276.62597656 C210.52236647 294.66287089 271.66139129 318.59078188 310.4375 365.375 C311.19546875 366.24511719 311.9534375 367.11523438 312.734375 368.01171875 C350.6035112 412.05517063 362.32698901 472.75691115 358.16015625 529.6015625 C357.74692691 534.21694195 357.1155844 538.79189037 356.4375 543.375 C356.27088867 544.51243652 356.10427734 545.64987305 355.93261719 546.82177734 C353.76388452 561.33430708 351.54586226 575.56350204 346.4375 589.375 C345.90543813 590.91203027 345.37561844 592.44983794 344.84765625 593.98828125 C341.37539679 603.93742871 337.2884936 613.3624667 332.34130859 622.66455078 C331.54577345 624.17009353 330.78020919 625.69139234 330.01953125 627.21484375 C316.94036371 652.72113822 295.53838536 675.68407877 272.4375 692.375 C271.80875977 692.83213379 271.18001953 693.28926758 270.53222656 693.76025391 C247.47405307 710.39680069 222.14376861 721.8601757 195.4375 731.375 C194.1130849 731.86144491 192.78883904 732.34835111 191.46484375 732.8359375 C141.65417191 750.46902765 86.89163481 752.89403481 34.57537842 752.39459229 C32.66763234 752.37710902 30.75984115 752.36471883 28.85205078 752.35302734 C-14.79309864 751.95521121 -56.12891555 740.82707068 -96.82348633 725.78808594 C-107.11003749 722.02827322 -117.08199711 718.79046224 -128.125 718.9375 C-129.35077759 718.94885986 -129.35077759 718.94885986 -130.60131836 718.96044922 C-137.20010788 719.13980328 -142.6647913 720.30588242 -148.5625 723.375 C-149.36300781 723.77589844 -150.16351562 724.17679688 -150.98828125 724.58984375 C-156.73204385 727.75028729 -161.53624207 731.83241256 -166.45336914 736.11743164 C-177.77945023 745.85179294 -188.89150284 752.95933257 -204.125 752.6875 C-205.03185547 752.69072266 -205.93871094 752.69394531 -206.87304688 752.69726562 C-216.16183018 752.62317091 -222.23627846 750.81913644 -228.9934082 744.26831055 C-236.80812289 735.4673808 -240.33178304 723.07653039 -243.875 712.0625 C-244.36860594 710.55627583 -244.86285294 709.05026163 -245.35766602 707.54443359 C-251.17273521 689.76431967 -256.74782848 671.90364135 -262.33129883 654.04956055 C-265.59401976 643.63360163 -268.85661397 633.24853577 -272.6159668 622.99951172 C-273.82208922 619.65522075 -274.80447117 616.30205959 -275.75 612.875 C-277.88672997 605.32582438 -280.37607439 597.9051376 -282.89346313 590.47622681 C-286.00794572 581.27654843 -289.10080543 572.08829089 -291.5625 562.6875 C-291.74554687 561.98963379 -291.92859375 561.29176758 -292.1171875 560.57275391 C-296.17648952 544.40970614 -299.98451724 522.65388084 -291.5625 507.375 C-284.77267174 496.39094871 -274.96278198 490.32429436 -262.63574219 486.82861328 C-251.32109106 484.3530337 -238.08406657 485.7617725 -228.21875 491.8125 C-225.85450213 493.54406182 -223.71811801 495.38946506 -221.5625 497.375 C-220.23412109 498.58349609 -220.23412109 498.58349609 -218.87890625 499.81640625 C-212.02174186 506.35020921 -206.73214363 513.42942376 -201.5625 521.375 C-189.19690563 540.18842508 -176.595134 558.57221888 -161.5625 575.375 C-160.7375 576.29925781 -159.9125 577.22351562 -159.0625 578.17578125 C-157.64430085 579.75448605 -156.22205458 581.3295808 -154.79296875 582.8984375 C-153.52488973 584.30642716 -152.26548647 585.72265486 -151.03466797 587.16333008 C-146.72573057 592.19042371 -142.15590079 596.80119299 -137.3125 601.3125 C-136.560896 602.01415283 -135.80929199 602.71580566 -135.03491211 603.4387207 C-119.70202764 617.65840252 -102.83570543 630.18301413 -84.5625 640.375 C-83.80163086 640.80522461 -83.04076172 641.23544922 -82.25683594 641.67871094 C-44.32038823 662.96602867 -2.8764212 671.72921785 40.4375 670.375 C41.27877441 670.35808105 42.12004883 670.34116211 42.98681641 670.32373047 C69.82036588 669.77844978 99.91702569 662.39205231 120.4375 644.375 C121.18644531 643.73175781 121.93539063 643.08851563 122.70703125 642.42578125 C135.19125622 630.91987715 142.65911903 613.65671767 143.57641602 596.82617188 C144.30915293 576.64800141 141.83181655 559.24563425 128.375 543.1875 C111.01330734 525.12550377 86.56408549 516.33223667 63.4375 508.375 C62.48472168 508.04371094 61.53194336 507.71242188 60.55029297 507.37109375 C45.8592978 502.31089149 30.88053198 498.66775428 15.75439453 495.15844727 C12.55132088 494.40188438 9.36142599 493.60443476 6.171875 492.79296875 C1.07816232 491.50963965 -4.02961519 490.4263859 -9.1875 489.4375 C-17.75717131 487.75357002 -26.28895198 485.95030255 -34.80273438 484.00390625 C-36.829287 483.54208746 -38.85676879 483.08434117 -40.88476562 482.62890625 C-90.72979658 471.42114781 -142.17059809 456.15421645 -185.5625 428.375 C-186.59503906 427.72402344 -187.62757812 427.07304688 -188.69140625 426.40234375 C-203.98185414 416.48696676 -217.6893084 405.2481916 -230.5625 392.375 C-231.30628906 391.67761719 -232.05007813 390.98023438 -232.81640625 390.26171875 C-262.37794173 362.10072979 -279.98834606 320.31217355 -285.5625 280.375 C-285.780271 278.96323486 -285.780271 278.96323486 -286.00244141 277.52294922 C-290.2597901 249.46834747 -291.45671167 218.25654945 -285.5625 190.375 C-285.35318848 189.36598633 -285.14387695 188.35697266 -284.92822266 187.31738281 C-282.16103 174.29414772 -278.95478612 161.57040824 -273.5625 149.375 C-272.98822266 148.07248291 -272.98822266 148.07248291 -272.40234375 146.74365234 C-261.89067836 123.23304295 -248.38162743 102.9666815 -230.5625 84.375 C-229.73322998 83.49690674 -229.73322998 83.49690674 -228.88720703 82.60107422 C-219.54144147 72.7414343 -209.6284972 64.24908588 -198.5625 56.375 C-197.6353418 55.71274414 -197.6353418 55.71274414 -196.68945312 55.03710938 C-157.60371304 27.40972958 -112.46835156 12.16916553 -65.5625 4.375 C-64.46534668 4.17745117 -63.36819336 3.97990234 -62.23779297 3.77636719 C-41.57185263 0.14742925 -20.91060282 0.00273588 0 0 Z " fill="#F6F6F1" transform="translate(1899.5625,995.625)"/>
</svg>
